<mxfile host="app.diagrams.net" agent="Mozilla/5.0 (Windows NT 10.0; Win64; x64) AppleWebKit/537.36 (KHTML, like Gecko) Chrome/139.0.0.0 Safari/537.36" version="28.2.0">
  <diagram name="第 1 页" id="zSTitftozx2Z_BflJEai">
    <mxGraphModel dx="2490" dy="1960" grid="1" gridSize="10" guides="1" tooltips="1" connect="1" arrows="1" fold="1" page="1" pageScale="1" pageWidth="827" pageHeight="1169" math="0" shadow="0">
      <root>
        <mxCell id="0" />
        <mxCell id="1" parent="0" />
        <mxCell id="iIg9yEyoqN3lQ08Llj24-2" value="godmch_ods_1" style="strokeWidth=1;shadow=0;dashed=0;align=center;html=1;shape=mxgraph.mockup.buttons.button;strokeColor=#666666;fontColor=#ffffff;mainText=;buttonStyle=round;fontSize=17;fontStyle=1;fillColor=#008cff;whiteSpace=wrap;" vertex="1" parent="1">
          <mxGeometry x="60" y="460" width="180" height="50" as="geometry" />
        </mxCell>
        <mxCell id="iIg9yEyoqN3lQ08Llj24-3" value="godmch_ods_2" style="strokeWidth=1;shadow=0;dashed=0;align=center;html=1;shape=mxgraph.mockup.buttons.button;strokeColor=#666666;fontColor=#ffffff;mainText=;buttonStyle=round;fontSize=17;fontStyle=1;fillColor=#008cff;whiteSpace=wrap;" vertex="1" parent="1">
          <mxGeometry x="60" y="530" width="180" height="50" as="geometry" />
        </mxCell>
        <mxCell id="iIg9yEyoqN3lQ08Llj24-4" value="godmch_ods_3" style="strokeWidth=1;shadow=0;dashed=0;align=center;html=1;shape=mxgraph.mockup.buttons.button;strokeColor=#666666;fontColor=#ffffff;mainText=;buttonStyle=round;fontSize=17;fontStyle=1;fillColor=#008cff;whiteSpace=wrap;" vertex="1" parent="1">
          <mxGeometry x="60" y="600" width="180" height="50" as="geometry" />
        </mxCell>
        <mxCell id="iIg9yEyoqN3lQ08Llj24-5" value="&lt;a style=&quot;box-sizing: border-box; background-color: rgb(249, 249, 249); color: rgb(54, 95, 132); text-decoration-line: none; font-family: &amp;quot;Helvetica Neue&amp;quot;, Helvetica, Arial, sans-serif; font-size: 14px; font-weight: 400; text-align: start;&quot; data-original-title=&quot;&quot; title=&quot;&quot; href=&quot;http://airflow2.portal.cn/dags/T_X_HOURLY_TBL_FLOW/grid&quot;&gt;&lt;span style=&quot;box-sizing: border-box; font-weight: 700;&quot; title=&quot;T_X_HOURLY_TBL_FLOW&quot;&gt;T_X_HOURLY_TBL_FLOW&lt;/span&gt;&lt;/a&gt;" style="strokeWidth=1;shadow=0;dashed=0;align=center;html=1;shape=mxgraph.mockup.buttons.button;strokeColor=#666666;fontColor=#ffffff;mainText=;buttonStyle=round;fontSize=17;fontStyle=1;fillColor=#008cff;whiteSpace=wrap;" vertex="1" parent="1">
          <mxGeometry x="60" y="300" width="180" height="50" as="geometry" />
        </mxCell>
        <mxCell id="iIg9yEyoqN3lQ08Llj24-7" value="&lt;a style=&quot;box-sizing: border-box; background-color: rgb(245, 245, 245); color: rgb(1, 124, 238); text-decoration-line: none; outline: 0px; font-family: &amp;quot;Helvetica Neue&amp;quot;, Helvetica, Arial, sans-serif; font-size: 14px; font-weight: 400; text-align: start;&quot; data-original-title=&quot;&quot; title=&quot;&quot; href=&quot;http://airflow2.portal.cn/dags/godmch_dwh_dim_daily/grid&quot;&gt;&lt;span style=&quot;box-sizing: border-box; font-weight: 700;&quot; title=&quot;godmch_dwh_dim_daily&quot;&gt;godmch_dwh_dim_daily&lt;/span&gt;&lt;/a&gt;" style="strokeWidth=1;shadow=0;dashed=0;align=center;html=1;shape=mxgraph.mockup.buttons.button;strokeColor=#666666;fontColor=#ffffff;mainText=;buttonStyle=round;fontSize=17;fontStyle=1;fillColor=#008cff;whiteSpace=wrap;" vertex="1" parent="1">
          <mxGeometry x="380" y="500" width="180" height="50" as="geometry" />
        </mxCell>
        <mxCell id="iIg9yEyoqN3lQ08Llj24-8" value="&lt;a style=&quot;box-sizing: border-box; background-color: rgb(249, 249, 249); color: rgb(54, 95, 132); text-decoration-line: none; font-family: &amp;quot;Helvetica Neue&amp;quot;, Helvetica, Arial, sans-serif; font-size: 14px; font-weight: 400; text-align: start;&quot; data-original-title=&quot;&quot; title=&quot;&quot; href=&quot;http://airflow2.portal.cn/dags/godmch_dwh_fact_hourly/grid&quot;&gt;&lt;span style=&quot;box-sizing: border-box; font-weight: 700;&quot; title=&quot;godmch_dwh_fact_hourly&quot;&gt;godmch_dwh_fact_hourly&lt;/span&gt;&lt;/a&gt;" style="strokeWidth=1;shadow=0;dashed=0;align=center;html=1;shape=mxgraph.mockup.buttons.button;strokeColor=#666666;fontColor=#ffffff;mainText=;buttonStyle=round;fontSize=17;fontStyle=1;fillColor=#008cff;whiteSpace=wrap;" vertex="1" parent="1">
          <mxGeometry x="380" y="560" width="180" height="50" as="geometry" />
        </mxCell>
        <mxCell id="iIg9yEyoqN3lQ08Llj24-9" value="" style="endArrow=classic;html=1;rounded=0;" edge="1" parent="1">
          <mxGeometry width="50" height="50" relative="1" as="geometry">
            <mxPoint x="300" y="554.5" as="sourcePoint" />
            <mxPoint x="360" y="554.5" as="targetPoint" />
          </mxGeometry>
        </mxCell>
        <mxCell id="iIg9yEyoqN3lQ08Llj24-10" value="" style="endArrow=classic;html=1;rounded=0;" edge="1" parent="1">
          <mxGeometry width="50" height="50" relative="1" as="geometry">
            <mxPoint x="298" y="323.5" as="sourcePoint" />
            <mxPoint x="358" y="323.5" as="targetPoint" />
          </mxGeometry>
        </mxCell>
        <mxCell id="iIg9yEyoqN3lQ08Llj24-11" value="&lt;a style=&quot;box-sizing: border-box; background-color: rgb(245, 245, 245); color: rgb(54, 95, 132); text-decoration-line: none; font-family: &amp;quot;Helvetica Neue&amp;quot;, Helvetica, Arial, sans-serif; font-size: 14px; font-weight: 400; text-align: start;&quot; data-original-title=&quot;&quot; title=&quot;&quot; href=&quot;http://airflow2.portal.cn/dags/god_mchid_cookieid_firsttime_daily/grid&quot;&gt;&lt;span style=&quot;box-sizing: border-box; font-weight: 700;&quot; title=&quot;god_mchid_cookieid_firsttime_daily&quot;&gt;god_mchid_cookieid_firsttime_daily&lt;/span&gt;&lt;/a&gt;" style="strokeWidth=1;shadow=0;dashed=0;align=center;html=1;shape=mxgraph.mockup.buttons.button;strokeColor=#666666;fontColor=#ffffff;mainText=;buttonStyle=round;fontSize=17;fontStyle=1;fillColor=#008cff;whiteSpace=wrap;" vertex="1" parent="1">
          <mxGeometry x="380" y="300" width="250" height="50" as="geometry" />
        </mxCell>
        <mxCell id="iIg9yEyoqN3lQ08Llj24-12" value="&lt;a style=&quot;box-sizing: border-box; background-color: rgb(255, 255, 255); color: rgb(54, 95, 132); text-decoration-line: none; font-family: &amp;quot;Helvetica Neue&amp;quot;, Helvetica, Arial, sans-serif; font-size: 14px; font-weight: 400; text-align: start;&quot; data-original-title=&quot;&quot; title=&quot;&quot; href=&quot;http://airflow2.portal.cn/dags/basic_godmchorder_transfer_mark_daily/grid&quot;&gt;&lt;span style=&quot;box-sizing: border-box; font-weight: 700;&quot; title=&quot;basic_godmchorder_transfer_mark_daily&quot;&gt;basic_godmchorder_transfer_mark_daily&lt;/span&gt;&lt;/a&gt;" style="strokeWidth=1;shadow=0;dashed=0;align=center;html=1;shape=mxgraph.mockup.buttons.button;strokeColor=#666666;fontColor=#ffffff;mainText=;buttonStyle=round;fontSize=17;fontStyle=1;fillColor=#008cff;whiteSpace=wrap;" vertex="1" parent="1">
          <mxGeometry x="380" y="380" width="280" height="50" as="geometry" />
        </mxCell>
        <mxCell id="iIg9yEyoqN3lQ08Llj24-13" value="" style="endArrow=classic;html=1;rounded=0;" edge="1" parent="1">
          <mxGeometry width="50" height="50" relative="1" as="geometry">
            <mxPoint x="700" y="430" as="sourcePoint" />
            <mxPoint x="760" y="430" as="targetPoint" />
          </mxGeometry>
        </mxCell>
        <mxCell id="iIg9yEyoqN3lQ08Llj24-14" value="&lt;a style=&quot;box-sizing: border-box; background-color: rgb(245, 245, 245); color: rgb(1, 124, 238); text-decoration-line: none; outline: 0px; font-family: &amp;quot;Helvetica Neue&amp;quot;, Helvetica, Arial, sans-serif; font-size: 14px; font-weight: 400; text-align: start;&quot; data-original-title=&quot;&quot; title=&quot;&quot; href=&quot;http://airflow2.portal.cn/dags/godmch_mchid_uv_hourly/grid&quot;&gt;&lt;span style=&quot;box-sizing: border-box; font-weight: 700;&quot; title=&quot;godmch_mchid_uv_hourly&quot;&gt;godmch_mchid_uv_hourly&lt;/span&gt;&lt;/a&gt;" style="strokeWidth=1;shadow=0;dashed=0;align=center;html=1;shape=mxgraph.mockup.buttons.button;strokeColor=#666666;fontColor=#ffffff;mainText=;buttonStyle=round;fontSize=17;fontStyle=1;fillColor=#008cff;whiteSpace=wrap;" vertex="1" parent="1">
          <mxGeometry x="820" y="470" width="180" height="50" as="geometry" />
        </mxCell>
        <mxCell id="iIg9yEyoqN3lQ08Llj24-15" value="&lt;a style=&quot;box-sizing: border-box; background-color: rgb(245, 245, 245); color: rgb(54, 95, 132); text-decoration-line: none; font-family: &amp;quot;Helvetica Neue&amp;quot;, Helvetica, Arial, sans-serif; font-size: 14px; font-weight: 400; text-align: start;&quot; data-original-title=&quot;&quot; title=&quot;&quot; href=&quot;http://airflow2.portal.cn/dags/god_productuv_order_daily/grid&quot;&gt;&lt;span style=&quot;box-sizing: border-box; font-weight: 700;&quot; title=&quot;god_productuv_order_daily&quot;&gt;god_productuv_order_daily&lt;/span&gt;&lt;/a&gt;" style="strokeWidth=1;shadow=0;dashed=0;align=center;html=1;shape=mxgraph.mockup.buttons.button;strokeColor=#666666;fontColor=#ffffff;mainText=;buttonStyle=round;fontSize=17;fontStyle=1;fillColor=#008cff;whiteSpace=wrap;" vertex="1" parent="1">
          <mxGeometry x="820" y="540" width="180" height="50" as="geometry" />
        </mxCell>
        <mxCell id="iIg9yEyoqN3lQ08Llj24-16" value="&lt;a style=&quot;box-sizing: border-box; background-color: rgb(255, 255, 255); color: rgb(54, 95, 132); text-decoration-line: none; font-family: &amp;quot;Helvetica Neue&amp;quot;, Helvetica, Arial, sans-serif; font-size: 14px; font-weight: 400; text-align: start;&quot; data-original-title=&quot;&quot; title=&quot;&quot; href=&quot;http://airflow2.portal.cn/dags/shop2cn_visit_stat/grid&quot;&gt;&lt;span style=&quot;box-sizing: border-box; font-weight: 700;&quot; title=&quot;shop2cn_visit_stat&quot;&gt;shop2cn_visit_stat&lt;/span&gt;&lt;/a&gt;" style="strokeWidth=1;shadow=0;dashed=0;align=center;html=1;shape=mxgraph.mockup.buttons.button;strokeColor=#666666;fontColor=#ffffff;mainText=;buttonStyle=round;fontSize=17;fontStyle=1;fillColor=#008cff;whiteSpace=wrap;" vertex="1" parent="1">
          <mxGeometry x="820" y="610" width="180" height="50" as="geometry" />
        </mxCell>
        <mxCell id="iIg9yEyoqN3lQ08Llj24-17" value="" style="shape=curlyBracket;whiteSpace=wrap;html=1;rounded=1;labelPosition=left;verticalLabelPosition=middle;align=right;verticalAlign=middle;" vertex="1" parent="1">
          <mxGeometry x="790" y="505" width="20" height="120" as="geometry" />
        </mxCell>
        <mxCell id="iIg9yEyoqN3lQ08Llj24-18" value="" style="shape=curlyBracket;whiteSpace=wrap;html=1;rounded=1;flipH=1;labelPosition=right;verticalLabelPosition=middle;align=left;verticalAlign=middle;" vertex="1" parent="1">
          <mxGeometry x="670" y="310" width="20" height="230" as="geometry" />
        </mxCell>
        <mxCell id="iIg9yEyoqN3lQ08Llj24-19" value="&lt;a style=&quot;box-sizing: border-box; background-color: rgb(245, 245, 245); color: rgb(54, 95, 132); text-decoration-line: none; font-family: &amp;quot;Helvetica Neue&amp;quot;, Helvetica, Arial, sans-serif; font-size: 14px; font-weight: 400; text-align: start;&quot; data-original-title=&quot;&quot; title=&quot;&quot; href=&quot;http://airflow2.portal.cn/dags/del_god_productuv_order_daily/grid&quot;&gt;&lt;span style=&quot;box-sizing: border-box; font-weight: 700;&quot; title=&quot;del_god_productuv_order_daily&quot;&gt;del_god_productuv_order_daily&lt;/span&gt;&lt;/a&gt;" style="strokeWidth=1;shadow=0;dashed=0;align=center;html=1;shape=mxgraph.mockup.buttons.button;strokeColor=#666666;fontColor=#ffffff;mainText=;buttonStyle=round;fontSize=17;fontStyle=1;fillColor=#008cff;whiteSpace=wrap;" vertex="1" parent="1">
          <mxGeometry x="810" y="210" width="230" height="50" as="geometry" />
        </mxCell>
        <mxCell id="iIg9yEyoqN3lQ08Llj24-20" value="&lt;a style=&quot;box-sizing: border-box; background-color: rgb(255, 255, 255); color: rgb(54, 95, 132); text-decoration-line: none; font-family: &amp;quot;Helvetica Neue&amp;quot;, Helvetica, Arial, sans-serif; font-size: 14px; font-weight: 400; text-align: start;&quot; data-original-title=&quot;&quot; title=&quot;&quot; href=&quot;http://airflow2.portal.cn/dags/godmch_email_push_daily/grid&quot;&gt;&lt;span style=&quot;box-sizing: border-box; font-weight: 700;&quot; title=&quot;godmch_email_push_daily&quot;&gt;godmch_email_push_daily&lt;/span&gt;&lt;/a&gt;" style="strokeWidth=1;shadow=0;dashed=0;align=center;html=1;shape=mxgraph.mockup.buttons.button;strokeColor=#666666;fontColor=#ffffff;mainText=;buttonStyle=round;fontSize=17;fontStyle=1;fillColor=#008cff;whiteSpace=wrap;" vertex="1" parent="1">
          <mxGeometry x="810" y="280" width="210" height="50" as="geometry" />
        </mxCell>
        <mxCell id="iIg9yEyoqN3lQ08Llj24-21" value="" style="shape=curlyBracket;whiteSpace=wrap;html=1;rounded=1;labelPosition=left;verticalLabelPosition=middle;align=right;verticalAlign=middle;" vertex="1" parent="1">
          <mxGeometry x="780" y="30" width="20" height="350" as="geometry" />
        </mxCell>
        <mxCell id="iIg9yEyoqN3lQ08Llj24-22" value="" style="shape=curlyBracket;whiteSpace=wrap;html=1;rounded=1;flipH=1;labelPosition=right;verticalLabelPosition=middle;align=left;verticalAlign=middle;" vertex="1" parent="1">
          <mxGeometry x="260" y="490" width="20" height="120" as="geometry" />
        </mxCell>
        <mxCell id="iIg9yEyoqN3lQ08Llj24-23" value="&lt;a style=&quot;box-sizing: border-box; background-color: rgb(245, 245, 245); color: rgb(1, 124, 238); text-decoration-line: none; outline: 0px; font-family: &amp;quot;Helvetica Neue&amp;quot;, Helvetica, Arial, sans-serif; font-size: 14px; font-weight: 400; text-align: start;&quot; data-original-title=&quot;&quot; title=&quot;&quot; href=&quot;http://airflow2.portal.cn/dags/godmch_mchid_uv_daily/grid&quot;&gt;&lt;span style=&quot;box-sizing: border-box; font-weight: 700;&quot; title=&quot;godmch_mchid_uv_daily&quot;&gt;godmch_mchid_uv_daily&lt;/span&gt;&lt;/a&gt;" style="strokeWidth=1;shadow=0;dashed=0;align=center;html=1;shape=mxgraph.mockup.buttons.button;strokeColor=#666666;fontColor=#ffffff;mainText=;buttonStyle=round;fontSize=17;fontStyle=1;fillColor=#008cff;whiteSpace=wrap;" vertex="1" parent="1">
          <mxGeometry x="820" y="350" width="210" height="50" as="geometry" />
        </mxCell>
        <mxCell id="iIg9yEyoqN3lQ08Llj24-24" value="&lt;a style=&quot;box-sizing: border-box; background-color: rgb(245, 245, 245); color: rgb(1, 124, 238); text-decoration-line: none; outline: 0px; font-family: &amp;quot;Helvetica Neue&amp;quot;, Helvetica, Arial, sans-serif; font-size: 14px; font-weight: 400; text-align: start;&quot; data-original-title=&quot;&quot; title=&quot;&quot; href=&quot;http://airflow2.portal.cn/dags/godmch_page_uv_daily/grid&quot;&gt;&lt;span style=&quot;box-sizing: border-box; font-weight: 700;&quot; title=&quot;godmch_page_uv_daily&quot;&gt;godmch_page_uv_daily&lt;/span&gt;&lt;/a&gt;" style="strokeWidth=1;shadow=0;dashed=0;align=center;html=1;shape=mxgraph.mockup.buttons.button;strokeColor=#666666;fontColor=#ffffff;mainText=;buttonStyle=round;fontSize=17;fontStyle=1;fillColor=#008cff;whiteSpace=wrap;" vertex="1" parent="1">
          <mxGeometry x="810" y="140" width="230" height="50" as="geometry" />
        </mxCell>
        <mxCell id="iIg9yEyoqN3lQ08Llj24-25" value="&lt;a style=&quot;box-sizing: border-box; background-color: rgb(245, 245, 245); color: rgb(54, 95, 132); text-decoration-line: none; font-family: &amp;quot;Helvetica Neue&amp;quot;, Helvetica, Arial, sans-serif; font-size: 14px; font-weight: 400; text-align: start;&quot; data-original-title=&quot;&quot; title=&quot;&quot; href=&quot;http://airflow2.portal.cn/dags/clickhouse_data_sync/grid&quot;&gt;&lt;span style=&quot;box-sizing: border-box; font-weight: 700;&quot; title=&quot;clickhouse_data_sync&quot;&gt;clickhouse_data_sync&lt;/span&gt;&lt;/a&gt;" style="strokeWidth=1;shadow=0;dashed=0;align=center;html=1;shape=mxgraph.mockup.buttons.button;strokeColor=#666666;fontColor=#ffffff;mainText=;buttonStyle=round;fontSize=17;fontStyle=1;fillColor=#008cff;whiteSpace=wrap;" vertex="1" parent="1">
          <mxGeometry x="825" y="730" width="180" height="50" as="geometry" />
        </mxCell>
        <mxCell id="iIg9yEyoqN3lQ08Llj24-26" value="&lt;a style=&quot;box-sizing: border-box; background-color: rgb(255, 255, 255); color: rgb(54, 95, 132); text-decoration-line: none; font-family: &amp;quot;Helvetica Neue&amp;quot;, Helvetica, Arial, sans-serif; font-size: 14px; font-weight: 400; text-align: start;&quot; data-original-title=&quot;&quot; title=&quot;&quot; href=&quot;http://airflow2.portal.cn/dags/god_crm_clickhouse_daily/grid&quot;&gt;&lt;span style=&quot;box-sizing: border-box; font-weight: 700;&quot; title=&quot;god_crm_clickhouse_daily&quot;&gt;god_crm_clickhouse_daily&lt;/span&gt;&lt;/a&gt;" style="strokeWidth=1;shadow=0;dashed=0;align=center;html=1;shape=mxgraph.mockup.buttons.button;strokeColor=#666666;fontColor=#ffffff;mainText=;buttonStyle=round;fontSize=17;fontStyle=1;fillColor=#008cff;whiteSpace=wrap;" vertex="1" parent="1">
          <mxGeometry x="1380" y="730" width="180" height="50" as="geometry" />
        </mxCell>
        <mxCell id="iIg9yEyoqN3lQ08Llj24-27" value="" style="endArrow=classic;html=1;rounded=0;" edge="1" parent="1">
          <mxGeometry width="50" height="50" relative="1" as="geometry">
            <mxPoint x="1020" y="754.5" as="sourcePoint" />
            <mxPoint x="1080" y="754.5" as="targetPoint" />
          </mxGeometry>
        </mxCell>
        <mxCell id="iIg9yEyoqN3lQ08Llj24-30" value="&lt;a style=&quot;box-sizing: border-box; background-color: rgb(255, 255, 255); color: rgb(54, 95, 132); text-decoration-line: none; font-family: &amp;quot;Helvetica Neue&amp;quot;, Helvetica, Arial, sans-serif; font-size: 14px; font-weight: 400; text-align: start;&quot; data-original-title=&quot;&quot; title=&quot;&quot; href=&quot;http://airflow2.portal.cn/dags/god_mch_distributor_transaction_daily/grid&quot;&gt;&lt;span style=&quot;box-sizing: border-box; font-weight: 700;&quot; title=&quot;god_mch_distributor_transaction_daily&quot;&gt;god_mch_distributor_transaction_daily&lt;/span&gt;&lt;/a&gt;" style="strokeWidth=1;shadow=0;dashed=0;align=center;html=1;shape=mxgraph.mockup.buttons.button;strokeColor=#666666;fontColor=#ffffff;mainText=;buttonStyle=round;fontSize=17;fontStyle=1;fillColor=#008cff;whiteSpace=wrap;" vertex="1" parent="1">
          <mxGeometry x="810" y="70" width="270" height="50" as="geometry" />
        </mxCell>
        <mxCell id="iIg9yEyoqN3lQ08Llj24-33" value="&lt;a style=&quot;box-sizing: border-box; background-color: rgb(255, 255, 255); color: rgb(54, 95, 132); text-decoration-line: none; font-family: &amp;quot;Helvetica Neue&amp;quot;, Helvetica, Arial, sans-serif; font-size: 14px; font-weight: 400; text-align: start;&quot; data-original-title=&quot;&quot; title=&quot;&quot; href=&quot;http://airflow2.portal.cn/dags/god_mchid_currency_transaction_daily/grid&quot;&gt;&lt;span style=&quot;box-sizing: border-box; font-weight: 700;&quot; title=&quot;god_mchid_currency_transaction_daily&quot;&gt;god_mchid_currency_transaction_daily&lt;/span&gt;&lt;/a&gt;" style="strokeWidth=1;shadow=0;dashed=0;align=center;html=1;shape=mxgraph.mockup.buttons.button;strokeColor=#666666;fontColor=#ffffff;mainText=;buttonStyle=round;fontSize=17;fontStyle=1;fillColor=#008cff;whiteSpace=wrap;" vertex="1" parent="1">
          <mxGeometry x="810" y="-10" width="270" height="50" as="geometry" />
        </mxCell>
        <mxCell id="iIg9yEyoqN3lQ08Llj24-34" value="flume job" style="strokeWidth=1;shadow=0;dashed=0;align=center;html=1;shape=mxgraph.mockup.buttons.button;strokeColor=#666666;fontColor=#ffffff;mainText=;buttonStyle=round;fontSize=17;fontStyle=1;fillColor=#008cff;whiteSpace=wrap;" vertex="1" parent="1">
          <mxGeometry x="-210" y="300" width="180" height="50" as="geometry" />
        </mxCell>
        <mxCell id="iIg9yEyoqN3lQ08Llj24-35" value="" style="endArrow=classic;html=1;rounded=0;" edge="1" parent="1">
          <mxGeometry width="50" height="50" relative="1" as="geometry">
            <mxPoint x="-20" y="324.5" as="sourcePoint" />
            <mxPoint x="40" y="324.5" as="targetPoint" />
          </mxGeometry>
        </mxCell>
        <mxCell id="iIg9yEyoqN3lQ08Llj24-38" value="&lt;a style=&quot;box-sizing: border-box; background-color: rgb(249, 249, 249); color: rgb(54, 95, 132); text-decoration-line: none; font-family: &amp;quot;Helvetica Neue&amp;quot;, Helvetica, Arial, sans-serif; font-size: 14px; font-weight: 400; text-align: start;&quot; data-original-title=&quot;&quot; title=&quot;&quot; href=&quot;http://airflow2.portal.cn/dags/crm_message_push_daily/grid&quot;&gt;&lt;span style=&quot;box-sizing: border-box; font-weight: 700;&quot; title=&quot;crm_message_push_daily&quot;&gt;crm_message_push_daily&lt;/span&gt;&lt;/a&gt;" style="strokeWidth=1;shadow=0;dashed=0;align=center;html=1;shape=mxgraph.mockup.buttons.button;strokeColor=#666666;fontColor=#ffffff;mainText=;buttonStyle=round;fontSize=17;fontStyle=1;fillColor=#008cff;whiteSpace=wrap;" vertex="1" parent="1">
          <mxGeometry x="1090" y="730" width="180" height="50" as="geometry" />
        </mxCell>
        <mxCell id="iIg9yEyoqN3lQ08Llj24-39" value="" style="endArrow=classic;html=1;rounded=0;" edge="1" parent="1">
          <mxGeometry width="50" height="50" relative="1" as="geometry">
            <mxPoint x="1290" y="754.5" as="sourcePoint" />
            <mxPoint x="1350" y="754.5" as="targetPoint" />
          </mxGeometry>
        </mxCell>
      </root>
    </mxGraphModel>
  </diagram>
</mxfile>
